<svg width="3520" height="907" viewBox="0 0 3520 907" fill="none" xmlns="http://www.w3.org/2000/svg">
<path d="M335.512 0.00567012C354.634 -0.220302 396.008 6.36686 416.938 9.23751C477.097 17.5145 537.116 26.2375 596.983 35.4053C637.164 41.4036 724.436 52.5863 760.076 60.6283C748.456 70.0241 734.986 76.3184 721.656 84.2494C675.025 112.002 624.133 131.682 600.843 171.851C602.168 177.29 625.463 251.621 618.34 254.481C609 258.22 569.146 261.14 552.496 265.689C498.433 280.477 466.633 305.794 430.194 334.731C383.592 324.382 341.098 317.543 291.595 323.512C247.422 328.842 203.445 343.92 177.532 368.937C172.715 342.17 164.304 303.755 163.317 277.788C226.018 253.601 263.733 239.422 329.342 219.805C349.196 213.966 368.703 207.986 389.181 203.187C286.233 175.69 148.78 267.119 66.52 245.972C66.95 252.131 67.648 276.058 72.634 279.598C89.29 291.446 91.151 290.146 83.705 308.974C104.55 357.698 157.51 444.147 44.796 455.126C62.515 409.452 63.063 364.227 58.596 317.493C57.138 302.225 38.28 303.035 60.998 281.457C57.639 267.039 56.773 255.4 56.554 240.892C40.045 233.113 -4.26102 215.385 0.331978 200.837C23.289 182.529 98.2 139.245 127.871 120.868C166.525 96.5339 205.506 72.4328 244.808 48.5657C265.079 36.1012 312.151 4.12617 335.512 0.00567012Z" fill="#000545"/>
<path d="M426.623 902.701C290.194 880.464 204.206 813.652 158.243 727.553C111.22 639.474 115.684 543.055 154.038 453.956C161.888 435.728 168.952 416.181 180.617 398.803C194.288 380.145 243.502 361.677 272.536 355.768C320.563 345.989 376.937 344.75 422.597 359.958C402.82 376.706 370.315 404.142 353.731 422.36C342.169 430.079 328.779 438.768 319.026 447.387C274.217 486.982 258.439 541.136 258.68 589.83C258.766 622.086 266.229 654.142 280.812 684.908C296.072 705.955 305.564 718.004 328.771 735.642C384.052 777.647 473.864 794.535 550.982 769.028C601.183 752.42 630.691 724.963 661.577 694.347C688.959 702.616 709.546 713.195 718.956 732.942C751.566 801.394 688.886 852.178 608.927 885.564C546.589 905.021 495.417 911.24 426.623 902.701Z" fill="url(#paint0_linear_1996_118)"/>
<path d="M280.812 684.908C296.073 705.956 305.565 718.004 328.772 735.642C384.053 777.647 473.865 794.535 550.983 769.028C601.184 752.42 630.692 724.963 661.578 694.347C688.96 702.616 709.547 713.195 718.957 732.942C751.567 801.394 688.887 852.178 608.928 885.564C546.59 905.021 495.418 911.241 426.624 902.702C434.282 901.812 440.472 902.162 447.703 900.552C451.984 895.392 451.153 871.795 450.999 864.466C457.074 862.606 457.411 863.636 465.591 864.636C463.584 862.057 446.006 857.527 438.531 849.608C371.738 817.582 327.068 774.127 297.979 723.154C291.569 711.925 283.562 696.587 280.812 684.908Z" fill="#FC6805"/>
<path d="M438.53 849.608C502.104 875.585 532.547 883.694 608.927 885.563C546.589 905.021 495.417 911.24 426.623 902.701C434.281 901.812 440.471 902.161 447.702 900.552C451.983 895.392 451.152 871.795 450.998 864.466C457.073 862.606 457.41 863.636 465.59 864.636C463.583 862.056 446.005 857.527 438.53 849.608Z" fill="#56302A"/>
<path d="M1308.77 292.846C1335.46 292.736 1362.16 292.726 1388.86 292.816C1390.39 355.938 1389.29 420.83 1389.26 484.053L1389.22 752.22C1377.2 753.77 1324.89 753.04 1310.82 752.99L1310.83 716.964C1288.76 742.891 1259.71 763.469 1210.87 758.879C1185.99 756.54 1159.33 744.231 1145.68 730.023C1092.5 674.25 1092.42 599.749 1105.67 535.996C1115.41 489.182 1158.24 420.86 1247.75 433.579C1276.6 437.678 1293.99 451.227 1308.77 467.115V292.846Z" fill="#000545"/>
<path d="M1234.16 502.78C1313.82 496.021 1310.44 571.542 1309.34 606.388C1308.39 636.414 1303.37 676.469 1253.3 687.508C1180.09 688.168 1178.79 614.537 1181.3 580.451C1183.22 554.264 1192.78 513.829 1234.16 502.78Z" fill="white"/>
<path d="M436.169 364.017C487.803 325.102 567.609 258.23 650.517 309.514C695.956 337.611 721.286 382.665 723.526 423.09C730.236 542.736 546.682 621.696 402.382 665.631C387.203 669.89 354.375 684.368 337.987 683.378C302.803 681.269 295.539 640.754 298.994 623.226C311.038 562.143 385.616 540.496 462.845 521.898C500.738 512.769 556.07 482.773 562.232 453.356C565.272 437.748 558.707 421.98 544.032 409.642C498.037 371.396 403.336 389.214 359.174 419.301C357.627 420.36 355.51 421.47 353.731 422.36C370.315 404.142 402.82 376.706 422.597 359.958L436.169 364.017Z" fill="#FC6805"/>
<path d="M820.677 301.665C903.007 300.175 992.257 301.185 1075.17 301.295L1074.82 380.125C1018.22 380.895 960.757 380.055 903.687 380.695C903.317 416.211 903.267 451.736 903.547 487.262L1060.65 487.332C1060.75 512.739 1060.29 538.156 1059.29 563.553C1010.17 564.763 953.977 563.733 903.787 564.153C903.357 594.819 903.197 625.495 903.307 656.161L903.347 675.969C962.807 676.839 1023.16 675.519 1083.1 676.359L1082.81 753.02L818.807 753.1L820.497 524.438C820.387 452.036 817.887 373.586 820.677 301.665Z" fill="#000545"/>
<path d="M2092.79 437.438C2182.28 432.379 2227.41 476.824 2243.09 529.637C2263.07 596.879 2261.01 738.082 2129.32 756.02C1941.66 775.247 1937.94 539.736 2010.07 472.984C2033.33 451.467 2053.86 442.228 2092.79 437.438Z" fill="#FC6805"/>
<path d="M2099.42 504.12C2193.82 496.161 2180.69 628.365 2159.1 663.591C2150.27 677.979 2139.29 684.858 2117.49 689.507C2055.74 698.816 2044.41 622.246 2045.62 596.279C2047.11 564.353 2048.03 518.718 2099.42 504.12Z" fill="white"/>
<path d="M2965.83 444.198C2973.18 443.638 2980.58 443.408 2987.98 443.508C3027.43 444.028 3058.11 462.575 3074.54 485.183C3104.95 527.047 3102.51 575.612 3101.08 620.916C3042.48 621.686 2981.52 621.226 2922.81 621.296C2930.14 666.46 2955.1 708.285 3041.41 683.908C3056.11 679.759 3067.42 672.95 3079.39 665.95C3081.11 674.549 3084.63 684.188 3087.45 692.787L3096.49 721.564C3051.68 749.24 2985.41 761.759 2928.47 741.461C2891.72 728.363 2865.09 692.747 2856.55 666.45C2834.99 600.058 2839.45 464.465 2965.83 444.198Z" fill="#FC6805"/>
<path d="M2970.65 504.06C2972.34 503.93 2974.03 503.82 2975.73 503.73C3028.03 500.941 3030.85 543.326 3032.08 567.833C3014.9 568.023 2997.71 568.152 2980.53 568.222C2961.72 568.522 2941.86 568.082 2922.97 567.872C2928.06 541.636 2932.61 517.939 2970.65 504.06Z" fill="white"/>
<path d="M1602.72 438.488C1629.25 438.488 1655.78 438.378 1682.3 438.168C1682.65 474.044 1682.72 509.91 1682.51 545.785L1682.28 749.66C1656.53 750.09 1630.77 750.09 1605.02 749.67L1605.18 710.895C1598.69 718.274 1588.18 730.853 1579.56 736.202C1513.62 777.107 1443.03 744.111 1430.63 693.127C1420.02 649.543 1422.8 617.777 1422.81 577.121L1422.19 438.708L1500.95 438.358L1500.65 569.262C1500.62 594.729 1500.04 617.237 1502.87 644.243C1501.86 666.221 1531.5 695.227 1567.5 680.289C1613.18 661.341 1603.06 597.529 1603.01 567.653L1602.72 438.488Z" fill="#000545"/>
<path d="M2418.23 441.728C2547.77 429.849 2532.48 552.584 2532.48 607.248L2531.88 747.461C2506.83 747.561 2481.78 747.52 2456.73 747.321L2456.77 624.736C2456.83 598.259 2457.48 573.702 2454.4 547.285C2450.1 510.41 2411.21 487.912 2370.73 523.798C2349.49 556.704 2354.85 590.96 2354.89 626.155L2354.84 747.171L2279.18 747.441L2279.28 445.377L2355.13 445.307L2355.68 478.853C2374.8 460.396 2384.7 448.047 2418.23 441.728Z" fill="#FC6805"/>
<path d="M2718.72 441.518L2721.79 441.438C2840.79 438.888 2823 560.833 2822.9 613.427L2822.97 747.25C2798.39 747.71 2771.66 747.43 2746.91 747.49L2746.99 621.886C2747.03 593.509 2761.05 504.28 2696.39 506.9C2680.54 507.55 2668.51 517.149 2660.56 525.398C2640.25 553.624 2645.5 591.349 2645.56 622.456C2645.92 664.021 2645.88 705.576 2645.44 747.13C2621.54 747.66 2595.05 747.35 2570.93 747.37L2570.98 446.577L2646.98 446.277L2646.74 480.273C2650.81 476.034 2654.99 471.834 2659.28 467.685C2676.42 451.407 2690.12 444.987 2718.72 441.518Z" fill="#FC6805"/>
<path d="M1841.68 437.478C1855.22 436.278 1868.94 436.368 1882.44 437.748C1919.9 441.798 1943.11 455.346 1963.99 475.094C1953.71 493.521 1943.94 512.069 1934.7 530.737C1862.57 477.883 1801.67 517.708 1795.49 573.862C1792.09 604.728 1792.34 647.013 1823.21 672.45C1858.39 701.446 1906.27 682.708 1939.71 664.381L1947.72 688.798C1952.5 701.106 1956.16 713.905 1960 726.393C1868.43 788.225 1748.42 746.501 1725.94 667.16C1705.19 593.939 1701.97 459.556 1841.68 437.478Z" fill="#FC6805"/>
<path d="M3452.57 353.309L3455.29 353.459C3458.18 356.048 3456.94 437.738 3456.94 447.227C3477.63 447.477 3499.2 447.147 3519.96 447.027C3519.73 468.245 3519.72 489.462 3519.93 510.679C3498.31 510.699 3478.77 510.799 3457.12 511.599L3456.8 604.078C3456.77 626.535 3454.16 655.782 3461.34 677.739C3467.27 695.887 3499.66 689.518 3518.91 685.988L3518.58 744.751C3504.5 748.45 3496.81 749.57 3481.93 751.81C3479.15 751.95 3476.37 752.04 3473.58 752.1C3365.88 754.15 3380.07 669.93 3380.21 620.546C3380.57 584.21 3380.51 547.865 3380.03 511.529L3345.34 510.949C3346.41 490.722 3345.53 467.475 3345.45 447.017C3354.59 447.357 3370.47 446.707 3380.19 446.487L3380.51 365.707C3404.66 361.918 3428.68 357.788 3452.57 353.309Z" fill="#FC6805"/>
<path d="M3250.61 443.068C3285.05 441.218 3304.05 444.088 3333.5 456.736C3333.58 480.943 3333.69 500.651 3329.88 524.688C3148.47 435.409 3147.12 767.378 3332.91 669.31C3334.38 685.618 3335.28 701.946 3335.6 718.284L3335.7 736.972C3226.92 786.536 3137.07 721.654 3123.07 649.763C3109.7 581.071 3118.49 457.056 3250.61 443.068Z" fill="#FC6805"/>
<defs>
<linearGradient id="paint0_linear_1996_118" x1="523.618" y1="639.936" x2="115.772" y2="592.453" gradientUnits="userSpaceOnUse">
<stop stop-color="#231837"/>
<stop offset="1" stop-color="#000048"/>
</linearGradient>
</defs>
</svg>
