<svg width="761" height="907" viewBox="0 0 761 907" fill="none" xmlns="http://www.w3.org/2000/svg">
<path d="M335.512 0.00567012C354.634 -0.220302 396.008 6.36686 416.938 9.23751C477.097 17.5145 537.116 26.2375 596.983 35.4053C637.164 41.4036 724.436 52.5863 760.076 60.6283C748.456 70.0241 734.986 76.3184 721.656 84.2494C675.025 112.002 624.133 131.682 600.843 171.851C602.168 177.29 625.463 251.621 618.34 254.481C609 258.22 569.146 261.14 552.496 265.689C498.433 280.477 466.633 305.794 430.194 334.731C383.592 324.382 341.098 317.543 291.595 323.512C247.422 328.842 203.445 343.92 177.532 368.937C172.715 342.17 164.304 303.755 163.317 277.788C226.018 253.601 263.733 239.422 329.342 219.805C349.196 213.966 368.703 207.986 389.181 203.187C286.233 175.69 148.78 267.119 66.52 245.972C66.95 252.131 67.648 276.058 72.634 279.598C89.29 291.446 91.151 290.146 83.705 308.974C104.55 357.698 157.51 444.147 44.796 455.126C62.515 409.452 63.063 364.227 58.596 317.493C57.138 302.225 38.28 303.035 60.998 281.457C57.639 267.039 56.773 255.4 56.554 240.892C40.045 233.113 -4.26102 215.385 0.331978 200.837C23.289 182.529 98.2 139.245 127.871 120.868C166.525 96.5339 205.506 72.4328 244.808 48.5657C265.079 36.1012 312.151 4.12617 335.512 0.00567012Z" fill="#000545"/>
<path d="M426.623 902.701C290.194 880.464 204.206 813.652 158.243 727.553C111.22 639.474 115.684 543.055 154.038 453.956C161.888 435.728 168.952 416.181 180.617 398.803C194.288 380.145 243.502 361.677 272.536 355.768C320.563 345.989 376.937 344.75 422.597 359.958C402.82 376.706 370.315 404.142 353.731 422.36C342.169 430.079 328.779 438.768 319.026 447.387C274.217 486.982 258.439 541.136 258.68 589.83C258.766 622.086 266.229 654.142 280.812 684.908C296.072 705.956 305.564 718.004 328.771 735.642C384.052 777.647 473.864 794.535 550.982 769.028C601.183 752.42 630.691 724.963 661.577 694.347C688.959 702.616 709.546 713.195 718.956 732.942C751.566 801.394 688.886 852.178 608.927 885.564C546.589 905.021 495.417 911.24 426.623 902.701Z" fill="url(#paint0_linear_1999_98)"/>
<path d="M280.812 684.908C296.073 705.956 305.565 718.004 328.772 735.642C384.053 777.647 473.865 794.535 550.983 769.028C601.184 752.42 630.692 724.963 661.578 694.347C688.96 702.616 709.547 713.195 718.957 732.942C751.567 801.394 688.887 852.178 608.928 885.564C546.59 905.021 495.418 911.241 426.624 902.702C434.282 901.812 440.472 902.162 447.703 900.552C451.984 895.392 451.153 871.795 450.999 864.466C457.074 862.606 457.411 863.636 465.591 864.636C463.584 862.057 446.006 857.527 438.531 849.608C371.738 817.582 327.068 774.127 297.979 723.154C291.569 711.925 283.562 696.587 280.812 684.908Z" fill="#FC6805"/>
<path d="M438.53 849.608C502.104 875.585 532.547 883.694 608.927 885.563C546.589 905.021 495.417 911.24 426.623 902.701C434.281 901.812 440.471 902.161 447.702 900.552C451.983 895.392 451.152 871.795 450.998 864.466C457.073 862.606 457.41 863.636 465.59 864.636C463.583 862.056 446.005 857.527 438.53 849.608Z" fill="#56302A"/>
<path d="M436.169 364.017C487.803 325.102 567.609 258.23 650.517 309.514C695.956 337.611 721.286 382.665 723.526 423.09C730.236 542.736 546.682 621.696 402.382 665.631C387.203 669.89 354.375 684.368 337.987 683.378C302.803 681.269 295.539 640.754 298.994 623.226C311.038 562.143 385.616 540.496 462.845 521.898C500.738 512.769 556.07 482.773 562.232 453.356C565.272 437.748 558.707 421.98 544.032 409.642C498.037 371.396 403.336 389.214 359.174 419.301C357.627 420.36 355.51 421.47 353.731 422.36C370.315 404.142 402.82 376.706 422.597 359.958L436.169 364.017Z" fill="#FC6805"/>
<defs>
<linearGradient id="paint0_linear_1999_98" x1="523.618" y1="639.936" x2="115.772" y2="592.453" gradientUnits="userSpaceOnUse">
<stop stop-color="#231837"/>
<stop offset="1" stop-color="#000048"/>
</linearGradient>
</defs>
</svg>
