<svg width="300" height="300" viewBox="0 0 300 300" fill="none" xmlns="http://www.w3.org/2000/svg">
<rect width="300" height="300" rx="44" fill="white"/>
<path d="M138.878 37.0014C143.658 36.9449 154.002 38.5917 159.234 39.3094C174.274 41.3786 189.279 43.5594 204.246 45.8513C214.291 47.3509 236.109 50.1466 245.019 52.1571C242.114 54.506 238.746 56.0796 235.414 58.0624C223.756 65.0005 211.033 69.9204 205.211 79.9627C205.542 81.3225 211.366 99.9053 209.585 100.62C207.25 101.555 197.286 102.285 193.124 103.422C179.608 107.119 171.658 113.449 162.548 120.683C150.898 118.096 140.274 116.386 127.899 117.878C116.855 119.21 105.861 122.98 99.383 129.234C98.1787 122.542 96.076 112.939 95.8293 106.447C111.505 100.4 120.933 96.8556 137.335 91.9512C142.299 90.4914 147.176 88.9966 152.295 87.7967C126.558 80.9226 92.195 103.78 71.63 98.4929C71.7375 100.033 71.912 106.015 73.1585 106.899C77.3225 109.862 77.7877 109.537 75.9262 114.244C81.1375 126.425 94.3775 148.037 66.199 150.782C70.6287 139.363 70.7657 128.057 69.649 116.373C69.2845 112.556 64.57 112.759 70.2495 107.364C69.4097 103.76 69.1932 100.85 69.1385 97.2231C65.0112 95.2783 53.9347 90.8464 55.083 87.2093C60.8222 82.6324 79.55 71.8112 86.9677 67.217C96.6312 61.1335 106.377 55.1082 116.202 49.1414C121.27 46.0253 133.038 38.0315 138.878 37.0014Z" fill="#000545"/>
<path d="M161.656 262.675C127.549 257.116 106.052 240.413 94.561 218.888C82.8052 196.868 83.9212 172.764 93.5097 150.489C95.4722 145.932 97.2382 141.045 100.154 136.701C103.572 132.036 115.876 127.419 123.134 125.942C135.141 123.497 149.234 123.187 160.649 126.989C155.705 131.176 147.579 138.036 143.433 142.59C140.542 144.52 137.195 146.692 134.757 148.847C123.554 158.746 119.61 172.284 119.67 184.457C119.692 192.521 121.557 200.535 125.203 208.227C129.018 213.489 131.391 216.501 137.193 220.91C151.013 231.412 173.466 235.634 192.746 229.257C205.296 225.105 212.673 218.241 220.394 210.587C227.24 212.654 232.387 215.299 234.739 220.236C242.892 237.348 227.222 250.044 207.232 258.391C191.647 263.255 178.854 264.81 161.656 262.675Z" fill="url(#paint0_linear_2003_105)"/>
<path d="M125.203 208.227C129.018 213.489 131.391 216.501 137.193 220.911C151.013 231.412 173.466 235.634 192.746 229.257C205.296 225.105 212.673 218.241 220.394 210.587C227.24 212.654 232.387 215.299 234.739 220.236C242.892 237.348 227.222 250.044 207.232 258.391C191.647 263.255 178.854 264.81 161.656 262.675C163.57 262.453 165.118 262.54 166.926 262.138C167.996 260.848 167.788 254.949 167.75 253.117C169.268 252.652 169.353 252.909 171.398 253.159C170.896 252.514 166.501 251.382 164.633 249.402C147.934 241.395 136.767 230.532 129.495 217.788C127.892 214.981 125.89 211.147 125.203 208.227Z" fill="#FC6805"/>
<path d="M164.631 249.402C180.525 255.896 188.135 257.923 207.23 258.391C191.646 263.255 178.853 264.81 161.654 262.675C163.569 262.453 165.116 262.54 166.924 262.138C167.994 260.848 167.787 254.949 167.748 253.117C169.267 252.652 169.351 252.909 171.396 253.159C170.894 252.514 166.5 251.382 164.631 249.402Z" fill="#56302A"/>
<path d="M164.042 128.004C176.951 118.276 196.902 101.558 217.629 114.378C228.989 121.403 235.321 132.666 235.881 142.773C237.559 172.684 191.67 192.424 155.595 203.408C151.801 204.473 143.594 208.092 139.497 207.845C130.701 207.317 128.885 197.188 129.748 192.806C132.759 177.536 151.404 172.124 170.711 167.475C180.184 165.192 194.017 157.693 195.558 150.339C196.318 146.437 194.677 142.495 191.008 139.41C179.509 129.849 155.834 134.304 144.793 141.825C144.407 142.09 143.877 142.368 143.433 142.59C147.579 138.036 155.705 131.176 160.649 126.989L164.042 128.004Z" fill="#FC6805"/>
<defs>
<linearGradient id="paint0_linear_2003_105" x1="185.905" y1="196.984" x2="83.9432" y2="185.113" gradientUnits="userSpaceOnUse">
<stop stop-color="#231837"/>
<stop offset="1" stop-color="#000048"/>
</linearGradient>
</defs>
</svg>
